<?xml version="1.0" standalone="no"?>
<svg version="1.0" xmlns="http://www.w3.org/2000/svg"
 width="91.000000pt" height="110.000000pt" viewBox="0 0 91.000000 110.000000"
 preserveAspectRatio="xMidYMid meet">

<g transform="translate(0.000000,110.000000) scale(0.100000,-0.100000)"
fill="#004bd5" stroke="none">
<path d="M253 1076 l-21 -22 22 -21 22 -21 21 22 21 22 -22 21 -22 21 -21 -22z"/>
<path d="M402 1028 c-7 -7 -12 -25 -12 -40 0 -24 -4 -28 -28 -28 -15 0 -33 -5
-40 -12 -17 -17 4 -38 39 -38 25 0 29 -4 29 -28 0 -15 5 -33 12 -40 17 -17 38
4 38 39 0 25 4 29 29 29 35 0 56 21 39 38 -7 7 -25 12 -40 12 -24 0 -28 4 -28
29 0 35 -21 56 -38 39z"/>
<path d="M186 894 c-12 -11 -16 -35 -16 -85 l0 -69 -69 0 c-71 0 -101 -14
-101 -45 0 -31 30 -45 101 -45 l69 0 0 -73 c0 -77 9 -97 45 -97 36 0 45 20 45
97 l0 73 73 0 c77 0 97 9 97 45 0 36 -20 45 -97 45 l-73 0 0 69 c0 71 -14 101
-45 101 -7 0 -21 -7 -29 -16z"/>
</g>
</svg>
