<svg xmlns="http://www.w3.org/2000/svg" viewBox="0 0 211.2 21.2"><path d="M34.9,9.4l-.4.2c-.5.4-.8.6-1.1.6s-.3-.1-.3-.5a1.7,1.7,0,0,1,.1-.7,2.8,2.8,0,0,0,.1-.9.8.8,0,0,0-.7-.9h-.2a1.7,1.7,0,0,0-1,.3,4.3,4.3,0,0,0-1.2,1.1,12.8,12.8,0,0,0-1.1,2c.1-.4.1-.7.2-1a3.6,3.6,0,0,1,.2-1,4.3,4.3,0,0,0,.2-1.1c0-.1,0-.2-.1-.2h-.4l-.8.2A1,1,0,0,0,28,8a9.5,9.5,0,0,0-.5,3.3l-.8.7a.8.8,0,0,1-.6.4c-.2,0-.3-.1-.3-.2a.5.5,0,0,1-.2-.4c0-.3.2-1,.4-2.3a12.9,12.9,0,0,0,.4-1.9c0-.2,0-.3-.1-.3h-.5l-.7.2a.7.7,0,0,0-.3.6,14.3,14.3,0,0,1-.8,2.2l-.6,1.3c-.3.2-.4.4-.6.4h-.2a.7.7,0,0,1-.1-.5,13.8,13.8,0,0,1,.3-2c.1-.2.1-.6.2-.9a4.5,4.5,0,0,0,.2-.8.4.4,0,0,0-.1-.3h-.5l-.8.2-.4.6A6.5,6.5,0,0,0,21,9.6l-1.1.2a4.6,4.6,0,0,0-.8-1.9,2.4,2.4,0,0,0-1.8-.7,2.4,2.4,0,0,0-1.6.5A3.7,3.7,0,0,0,14.5,9a4.7,4.7,0,0,0-.3,1.7l-1.9.5L12.6,9l.3-2.1q.3-1.8.6-3.9V2.7a.9.9,0,0,0-.8-1h-.2a1.1,1.1,0,0,0-.8.3l-.3.9a15.8,15.8,0,0,1-.9,4.2A13.5,13.5,0,0,1,9,9.7a2.6,2.6,0,0,1-1.6.9,1.1,1.1,0,0,1-.9-.4,3.6,3.6,0,0,1-.2-1,1.7,1.7,0,0,1,.1-.7,5,5,0,0,1,.2-1.2c.2-.8.3-1.4.4-1.9a8.8,8.8,0,0,0,.2-1.6,2.1,2.1,0,0,0-.5-1.5,2,2,0,0,0-1.4-.6,4.2,4.2,0,0,0-3.4,2,1.8,1.8,0,0,0-.4,1,.7.7,0,0,0,.1.5l.4.2c.2,0,.3-.1.4-.3A4.9,4.9,0,0,1,3.6,3.8l1-.4c.4,0,.5.3.5.7A4.1,4.1,0,0,1,5,5.2q-.1.6-.3,1.5L4.3,8.5c0,.4-.1.8-.1,1.1a2.9,2.9,0,0,0,.7,2,2.1,2.1,0,0,0,1.8.7,4.1,4.1,0,0,0,2.4-.8,7.7,7.7,0,0,0,1.7-2.7,2.9,2.9,0,0,1-.2.9l-.2,2a10.7,10.7,0,0,0-4.1,2.1,3.5,3.5,0,0,0-1.4,2.7A2.1,2.1,0,0,0,5.6,18a2.3,2.3,0,0,0,1.8.6,3.7,3.7,0,0,0,3-1.4A8,8,0,0,0,12,13v-.3l2.3-.5v.2a5.2,5.2,0,0,0,1,1.1,2.4,2.4,0,0,0,1.4.5,2.5,2.5,0,0,0,1.8-.8,3.1,3.1,0,0,0,1.1-1.9h1.1V12a2.6,2.6,0,0,0,.4,1.5,1.3,1.3,0,0,0,1.1.6,1.3,1.3,0,0,0,1-.6,2.6,2.6,0,0,0,.7-1.5,2,2,0,0,0,.4,1.5,1.1,1.1,0,0,0,1,.6,3,3,0,0,0,1.6-.5l.6-.5a.6.6,0,0,0,.1.4.7.7,0,0,0,.7.6.9.9,0,0,0,.7-.3l.3-.9.6-1.7a7.5,7.5,0,0,1,.7-1.2c.2-.3.4-.5.6-.5s.1.1.1.2v.8a2,2,0,0,0,.3,1.1,1.7,1.7,0,0,0,1.2.4,2,2,0,0,0,1.1-.3l1-.7a1.4,1.4,0,0,0,.3-.9L35,9.7ZM10.1,13.3c-.3,2.5-1.1,3.8-2.5,3.8a.9.9,0,0,1-.7-.3,1.4,1.4,0,0,1-.2-.6c0-1.2,1.1-2.2,3.4-3Zm7.6-1.2a1,1,0,0,1-1.4,0h-.1a2.7,2.7,0,0,1-.3-1.2,2.8,2.8,0,0,1,.4-1.5,1.1,1.1,0,0,1,1-.6h0v.5a3.6,3.6,0,0,0,.2,1,2.7,2.7,0,0,0,.7.8A1.6,1.6,0,0,1,17.7,12.1Z" fill="#0373af"/><path d="M45,2a6.3,6.3,0,0,0-1.9-.3,6.9,6.9,0,0,0-2.4.5,3.1,3.1,0,0,0-1.6,1.2,3,3,0,0,0-.6,1.8A3.4,3.4,0,0,0,39,6.9,4.3,4.3,0,0,0,40.2,8l1.8.8,1.3.5.8.6a1.6,1.6,0,0,1,.3.9,1.4,1.4,0,0,1-.7,1.2,2.8,2.8,0,0,1-1.8.4,6.3,6.3,0,0,1-1.9-.3,1,1,0,0,1-.6-.9v-.5c0-.2.1-.3.1-.5a.7.7,0,0,0-.3-.6l-.6-.2a1,1,0,0,0-.8.5,1.7,1.7,0,0,0-.3,1.2,2.4,2.4,0,0,0,1.2,2.2,6.3,6.3,0,0,0,3,.7,5.2,5.2,0,0,0,3.4-.9,2.8,2.8,0,0,0,1.3-2.6A2.1,2.1,0,0,0,45.9,9a2.7,2.7,0,0,0-1.1-1l-1.7-.8-1.4-.6-.9-.7a1.4,1.4,0,0,1-.3-.9,1.7,1.7,0,0,1,.7-1.3A2.8,2.8,0,0,1,43,3.3a4,4,0,0,1,1.5.3,1,1,0,0,1,.6.9,1.3,1.3,0,0,1-.1.6v.5a.8.8,0,0,0,.2.5.8.8,0,0,0,.7.2.9.9,0,0,0,.8-.4,2.2,2.2,0,0,0,.2-1.4A2.1,2.1,0,0,0,46.4,3,2.8,2.8,0,0,0,45,2Z" fill="#0373af"/><path d="M61.8,6.3a1,1,0,0,0,1-.4,1.1,1.1,0,0,0,.4-.9.9.9,0,0,0-.3-.7A1.4,1.4,0,0,0,62,4a1.3,1.3,0,0,0-1,.4,1.2,1.2,0,0,0-.4.8,1.1,1.1,0,0,0,.3.8A1.4,1.4,0,0,0,61.8,6.3Z" fill="#0373af"/><path d="M94.4,6.3a1.3,1.3,0,0,0,1-.4,1.5,1.5,0,0,0,.4-.9,1,1,0,0,0-.4-.7,1.1,1.1,0,0,0-.8-.3,1.3,1.3,0,0,0-1,.4.9.9,0,0,0-.4.8,1.1,1.1,0,0,0,.3.8A1.4,1.4,0,0,0,94.4,6.3Z" fill="#0373af"/><path d="M110.3,10.7l-.3.2L108.9,12c-.3.3-.5.4-.7.4s-.4-.2-.4-.6a4.5,4.5,0,0,1,.3-1.6,7.6,7.6,0,0,0,.3-2.1.8.8,0,0,0-.7-.9h-.2l-1.1.3a5.7,5.7,0,0,0-1.1,1.1,7.8,7.8,0,0,0-1.1,2,3.4,3.4,0,0,0,.1-1l.3-1c.1-.6.2-.9.2-1.1s0-.2-.1-.2h-.4l-.8.2a.7.7,0,0,0-.4.6,9.4,9.4,0,0,0-.4,1.6l-1.2.2a2.7,2.7,0,0,0-.8-1.9A2.1,2.1,0,0,0,99,7.2a2.4,2.4,0,0,0-1.6.5A3.7,3.7,0,0,0,96.2,9a5.8,5.8,0,0,0-.4,1.9,1.3,1.3,0,0,0,.1.6l-.5.5c-.3.3-.5.4-.7.4l-.4-.2c0-.2-.1-.4-.1-.7a7.8,7.8,0,0,1,.4-2.1,9.9,9.9,0,0,0,.2-1.7c0-.3-.2-.5-.7-.5l-.7.2-.3.6a12.9,12.9,0,0,0-.4,1.9,6.8,6.8,0,0,0-.2,1.4l-.7.7a2.1,2.1,0,0,1-1.1.4,1.1,1.1,0,0,1-1.1-.6,3.8,3.8,0,0,1-.4-2.1,4.1,4.1,0,0,1,.1-1.1H91c1.1,0,1.6-.4,1.6-1s0-.3-.1-.4H90.6a5.3,5.3,0,0,0,1.8-3.9,2.8,2.8,0,0,0-.3-1.3,1.1,1.1,0,0,0-.9-.5,2.1,2.1,0,0,0-1.6.8,8.2,8.2,0,0,0-1.2,2,13.7,13.7,0,0,0-.7,2.9h-.8c-.5,0-.7.3-.7.8a.8.8,0,0,0,.2.5l.6.2h.5v2.1l-.2.2a5.3,5.3,0,0,1-1.4,1.2,2.8,2.8,0,0,1-1.2.4c-1,0-1.5-.6-1.5-1.7a4.3,4.3,0,0,1,.2-1.1,3,3,0,0,1,.4-.8.9.9,0,0,1,.7-.3h.2a.4.4,0,0,1,.1.3v.4c-.1,0-.1.1-.1.2v.2c0,.2,0,.3.1.4h.5a.8.8,0,0,0,.7-.4,1.8,1.8,0,0,0,.2-1,1.7,1.7,0,0,0-.4-1.2A1.7,1.7,0,0,0,84.6,7a3,3,0,0,0-1.6.5A4.4,4.4,0,0,0,81.8,9a5.2,5.2,0,0,0-.4,2.1v.4L81,12c-.3.3-.5.4-.7.4l-.3-.2v-.3a8.5,8.5,0,0,1,.4-2.3c.1-.7.2-1.2.2-1.4a.7.7,0,0,0-.7-.5h-.7c0-.2-.1-.3-.1-.4h-.5a3,3,0,0,0-1.8.6,3.9,3.9,0,0,0-1.4,1.7.5.5,0,0,0-.2.4H72.6c-.2,0-.3,0-.4.2l-.4.5c0,.2-.1.3-.1.5a17,17,0,0,1,.4,2.2,14.9,14.9,0,0,1,.2,2.1c0,1-.2,1.5-.4,1.5s-.3-.5-.4-1.5-.1-2.1-.1-3.1a19.4,19.4,0,0,1,.2-2.4c2.7-2.7,4-5.1,4-7.4A2.9,2.9,0,0,0,75.2,1a1.1,1.1,0,0,0-1-.6c-.9,0-1.6.6-2.3,1.9A16.3,16.3,0,0,0,70.3,7a30.3,30.3,0,0,0-.6,4.2,3,3,0,0,1-1.4,1.1c0-.1.1-.3.1-.4a1.6,1.6,0,0,0-.3-.9,3.6,3.6,0,0,0-.7-1L67,9.3l-.2-.4a1.6,1.6,0,0,1,.3-.9c0-.1.1-.3.1-.4a.4.4,0,0,0,.1-.3l-.2-.2h-.5a1.4,1.4,0,0,0-1.2.7l-.6,1.4-.6,1.1-1.1,1.5-.3.3a.7.7,0,0,1-.6.4l-.4-.2a1.7,1.7,0,0,1-.1-.7A8.3,8.3,0,0,1,62,9.4l.3-1.7c0-.3-.2-.5-.7-.5l-.7.2a.7.7,0,0,0-.3.6,13.3,13.3,0,0,0-.5,1.9,6.6,6.6,0,0,0-.1,1.4l-.8.7a1.5,1.5,0,0,1-1.1.4,1.3,1.3,0,0,1-1.1-.6,7.6,7.6,0,0,1-.3-2.1V8.6h1.8c1,0,1.6-.4,1.6-1s-.1-.3-.1-.4H58a4.9,4.9,0,0,0,1.9-3.9A2.8,2.8,0,0,0,59.6,2a1.2,1.2,0,0,0-1-.5,1.8,1.8,0,0,0-1.5.8,8.2,8.2,0,0,0-1.2,2,13.8,13.8,0,0,0-.8,2.9h-.8c-.4,0-.6.3-.6.8a.7.7,0,0,0,.1.5l.6.2H55a4.9,4.9,0,0,0-.1,1.2,2.8,2.8,0,0,0,.1.9l-.3.2-1,1.1c-.3.3-.5.4-.7.4l-.3-.2V12L53,9.6c.1-.7.2-1.2.2-1.4a.7.7,0,0,0-.7-.5h-.7c0-.2-.1-.3-.1-.4h-.4a3.3,3.3,0,0,0-1.9.6A3.6,3.6,0,0,0,48,9.5a3.9,3.9,0,0,0-.6,2.1,2.7,2.7,0,0,0,.6,1.7,1.7,1.7,0,0,0,1.4.7,2.1,2.1,0,0,0,1.9-1.3,2.6,2.6,0,0,0,.5.9,1.8,1.8,0,0,0,.9.4,2.9,2.9,0,0,0,1.3-.5l1.2-1.3h.1A2.6,2.6,0,0,0,57.8,14a3.4,3.4,0,0,0,1.7-.5l.7-.6c.1.1.1.3.2.4a1.7,1.7,0,0,0,1.3.7c.9,0,1.7-.6,2.7-1.8h.1l.2-.3a6.4,6.4,0,0,0,.8-1.4l.5.6.3.6a1.9,1.9,0,0,1,.2.7h-.8a1.1,1.1,0,0,0-.8.3.9.9,0,0,0-.3.6.9.9,0,0,0,.4.8,2.1,2.1,0,0,0,1.1.4,2.4,2.4,0,0,0,1.4-.5,2.9,2.9,0,0,0,1.6-.4l.6-.3a12,12,0,0,0,.4,3.8q.5,1.5,1.5,1.5a1.6,1.6,0,0,0,1.3-.8,6.9,6.9,0,0,0,.5-2.4c0-.5-.1-1-.1-1.8a12.9,12.9,0,0,0-.4-1.9h1.8a2.7,2.7,0,0,0,.6,1.7,1.7,1.7,0,0,0,1.4.7,2.3,2.3,0,0,0,1.8-1.3l.6.9a1.8,1.8,0,0,0,.9.4,2.9,2.9,0,0,0,1.3-.5l.6-.6.3.3a2.7,2.7,0,0,0,2.2.8,4.1,4.1,0,0,0,1.8-.5,5.1,5.1,0,0,0,1.6-1.3h0A2.7,2.7,0,0,0,90.4,14a3.4,3.4,0,0,0,1.7-.5l.7-.6c0,.1.1.3.1.4a1.7,1.7,0,0,0,1.4.7,3,3,0,0,0,2.1-1.2,2.3,2.3,0,0,0,.7.7,2.4,2.4,0,0,0,1.4.5,2.5,2.5,0,0,0,1.8-.8,3.1,3.1,0,0,0,1.1-1.9h1.1v.3a12.3,12.3,0,0,0,.2,1.9c.2.4.4.6.8.6a.7.7,0,0,0,.6-.3c.2-.1.3-.5.4-.9l.6-1.7a7.5,7.5,0,0,1,.7-1.2l.5-.5a.2.2,0,0,1,.2.2,5.9,5.9,0,0,1-.2,1.3,6.8,6.8,0,0,0-.2,1.4,2.7,2.7,0,0,0,.3,1.2,1.6,1.6,0,0,0,1.1.5,3,3,0,0,0,1.6-.5,8.6,8.6,0,0,0,1.4-1.3,1.4,1.4,0,0,0,.3-.9.5.5,0,0,0-.2-.4C110.6,10.7,110.5,10.7,110.3,10.7ZM89.8,4.8a4.4,4.4,0,0,1,.5-1.5c.2-.4.3-.6.5-.6s.3.3.3.9a4.2,4.2,0,0,1-.4,1.6,3.7,3.7,0,0,1-1.3,1.7A15.5,15.5,0,0,1,89.8,4.8ZM72.5,5a20.2,20.2,0,0,1,.7-2.3c.3-.6.5-.9.7-.9s.3.3.3.9a6.6,6.6,0,0,1-.6,2.7,12.7,12.7,0,0,1-1.8,2.7C72,7.1,72.2,6,72.5,5ZM57.2,4.8c.2-.7.4-1.2.5-1.5s.4-.6.5-.6.3.3.3.9a2.9,2.9,0,0,1-.4,1.6,6.6,6.6,0,0,1-1.2,1.7Q57.1,5.7,57.2,4.8Zm-6.3,6.3a3,3,0,0,1-.4,1,.7.7,0,0,1-.6.4l-.5-.2a1.9,1.9,0,0,1-.2-.7,4,4,0,0,1,.3-1.5A2.8,2.8,0,0,1,50.3,9a1.8,1.8,0,0,1,1.2-.5Zm27.3,0a3,3,0,0,1-.4,1,.7.7,0,0,1-.6.4l-.5-.2a1.9,1.9,0,0,1-.2-.7,4,4,0,0,1,.3-1.5A2.8,2.8,0,0,1,77.6,9a1.6,1.6,0,0,1,1.1-.5Zm21.2,1a1.1,1.1,0,0,1-.8.3,1,1,0,0,1-.7-.4,2.7,2.7,0,0,1-.3-1.2A2,2,0,0,1,98,9.3a1.1,1.1,0,0,1,.9-.6H99v.5a3.6,3.6,0,0,0,.2,1,2.7,2.7,0,0,0,.7.8A1.6,1.6,0,0,1,99.4,12.1Z" fill="#0373af"/><path d="M115.2,6.3a1,1,0,0,0,1-.4,1.1,1.1,0,0,0,.4-.9.9.9,0,0,0-.3-.7,1.4,1.4,0,0,0-.9-.3,1.3,1.3,0,0,0-1,.4,1.2,1.2,0,0,0-.4.8,1.1,1.1,0,0,0,.3.8A1.4,1.4,0,0,0,115.2,6.3Z" fill="#0373af"/><path d="M123.8,10.7a.5.5,0,0,0-.4.2,3.9,3.9,0,0,1-1.7,1.4c0-.1.1-.3.1-.4a1.6,1.6,0,0,0-.3-.9,3.6,3.6,0,0,0-.7-1l-.4-.7a.8.8,0,0,1-.2-.4,1.6,1.6,0,0,1,.3-.9c0-.1.1-.3.1-.4a.4.4,0,0,0,.1-.3l-.2-.2H120a1.4,1.4,0,0,0-1.2.7l-.6,1.4-.6,1.1-1.1,1.5-.3.3a.7.7,0,0,1-.6.4l-.4-.2a1.7,1.7,0,0,1-.1-.7,7.6,7.6,0,0,1,.3-2.1l.3-1.7c0-.3-.2-.5-.7-.5l-.7.2a.7.7,0,0,0-.3.6,13.3,13.3,0,0,0-.5,1.9,8.6,8.6,0,0,0-.1,1.6,3.7,3.7,0,0,0,.4,1.8,1.7,1.7,0,0,0,1.3.7c.9,0,1.7-.6,2.7-1.8h.1l.2-.3a6.4,6.4,0,0,0,.8-1.4l.5.6.3.6a1.9,1.9,0,0,1,.2.7h-.8a1.1,1.1,0,0,0-.8.3.9.9,0,0,0-.3.6.9.9,0,0,0,.4.8,2.1,2.1,0,0,0,1.1.4,2.4,2.4,0,0,0,1.4-.5,2.9,2.9,0,0,0,1.6-.4,4.1,4.1,0,0,0,1.4-1.2,1.4,1.4,0,0,0,.3-.9.5.5,0,0,0-.2-.4C124,10.7,123.9,10.7,123.8,10.7Z" fill="#0373af"/><path d="M135.3,2.3a4.6,4.6,0,0,0-2.3-.6,5.3,5.3,0,0,0-3,.9,5.6,5.6,0,0,0-2.2,2.6A10,10,0,0,0,127,9a6.3,6.3,0,0,0,.6,2.7,4.4,4.4,0,0,0,1.6,1.7,4.6,4.6,0,0,0,2.3.6,5.9,5.9,0,0,0,5.2-3.5,7.6,7.6,0,0,0,.8-3.9,5.8,5.8,0,0,0-.6-2.6A4.4,4.4,0,0,0,135.3,2.3ZM135,9.7a5,5,0,0,1-1.3,1.9,3.6,3.6,0,0,1-2,.6,2.1,2.1,0,0,1-1.9-.8,4.8,4.8,0,0,1-.7-2.6,8.7,8.7,0,0,1,.5-2.8,5,5,0,0,1,1.3-1.9,3.1,3.1,0,0,1,2-.7,2.1,2.1,0,0,1,1.8.9,4.1,4.1,0,0,1,.7,2.6A9,9,0,0,1,135,9.7Z" fill="#0373af"/><path d="M152.5,9.4l-.4.2c-.4.4-.7.6-1,.6s-.4-.1-.4-.5l.2-.7c0-.4.1-.7.1-.9a.8.8,0,0,0-.7-.9h-.2a2,2,0,0,0-1.1.3,5.7,5.7,0,0,0-1.1,1.1,7.8,7.8,0,0,0-1.1,2c0-.4.1-.7.1-1l.3-1c.1-.6.2-.9.2-1.1V7.3H147l-.9.2-.4.6a12.6,12.6,0,0,0-.5,3.3l-.7.7c-.3.3-.5.4-.7.4l-.3-.2c-.1-.1-.1-.2-.1-.4a18.5,18.5,0,0,1,.4-2.3c.2-1,.4-1.7.4-1.9s-.1-.3-.2-.3h-.4l-.7.2a.8.8,0,0,0-.4.6,8.1,8.1,0,0,1-.7,2.2,5.4,5.4,0,0,1-.7,1.3l-.5.4h-.3v-.5a13.8,13.8,0,0,1,.3-2,2.9,2.9,0,0,1,.2-.9c.1-.5.2-.7.2-.8l-.2-.3h-.4a1.1,1.1,0,0,0-.8.2.8.8,0,0,0-.4.6,13.3,13.3,0,0,0-.5,1.9,13.4,13.4,0,0,0-.1,2,2.6,2.6,0,0,0,.4,1.5,1.1,1.1,0,0,0,1,.6,1.4,1.4,0,0,0,1.1-.6,4.1,4.1,0,0,0,.7-1.5,4,4,0,0,0,.3,1.5,1.1,1.1,0,0,0,1,.6,3,3,0,0,0,1.6-.5l.6-.5v.4c.2.4.4.6.8.6a.7.7,0,0,0,.6-.3c.2-.1.3-.5.4-.9l.6-1.7a4.7,4.7,0,0,1,.7-1.2c.2-.3.4-.5.5-.5l.2.2h0a.6.6,0,0,0-.1.4,1.5,1.5,0,0,0,.4,1.1,1.7,1.7,0,0,0,1.2.4,2,2,0,0,0,1.1-.3l.9-.7a1.4,1.4,0,0,0,.3-.9.6.6,0,0,0-.1-.4Z" fill="#0373af"/><path d="M164.6,2.2a5.9,5.9,0,0,0-2.3-.4,6.2,6.2,0,0,0-3.5,1,6.7,6.7,0,0,0-2.5,3,11.6,11.6,0,0,0-1,4.9,7.5,7.5,0,0,0,.5,2.6,3.1,3.1,0,0,0,1.2,1.6,2.4,2.4,0,0,0,1.6.5c1,0,1.7-.6,1.9-1.9l.6-3.5a6,6,0,0,0,2.9-.8,3.5,3.5,0,0,0,1.8-1.6,3.9,3.9,0,0,0,.7-2.3,4.1,4.1,0,0,0-.5-1.8A4.4,4.4,0,0,0,164.6,2.2Zm-3.2,6.3.5-2.8V5.4a1.4,1.4,0,0,0-.2-.6l-.7-.2-.7.2a1.6,1.6,0,0,0-.4.7c-.2,1.3-.4,2.3-.5,3h-.8l-.5.2a.7.7,0,0,0-.1.5.7.7,0,0,0,.1.5l.5.3h.5l-.4,2.7q-.3.9-.6.9a.5.5,0,0,1-.5-.3,3.7,3.7,0,0,1-.5-1.1,8.8,8.8,0,0,1-.2-1.6,11.5,11.5,0,0,1,.6-3.7,5.6,5.6,0,0,1,1.7-2.6,4,4,0,0,1,2.6-1,2.2,2.2,0,0,1,1.9.6,2.3,2.3,0,0,1,.6,1.6c0,1.8-.9,2.8-2.9,3Z" fill="#0373af"/><path d="M175.3,6.3a1.3,1.3,0,0,0,1-.4,1.4,1.4,0,0,0,.3-.9.9.9,0,0,0-.3-.7,1.4,1.4,0,0,0-.9-.3,1.1,1.1,0,0,0-.9.4.9.9,0,0,0-.4.8,1.1,1.1,0,0,0,.3.8A1.4,1.4,0,0,0,175.3,6.3Z" fill="#0373af"/><path d="M191.8,6.3a1.1,1.1,0,0,0,.9-.4,1.1,1.1,0,0,0,.4-.9.9.9,0,0,0-.3-.7,1.4,1.4,0,0,0-.9-.3,1.3,1.3,0,0,0-1,.4,1.1,1.1,0,0,0-.3.8,1.1,1.1,0,0,0,.2.8A1.7,1.7,0,0,0,191.8,6.3Z" fill="#0373af"/><path d="M209.5,1.8a1,1,0,0,0-1.2.8h0c-.3,1-.5,2.2-.8,3.5s-.5,2.6-.7,3.7h0a.5.5,0,0,0,.2.4h.5c.4,0,.6-.1.7-.4s.8-2.3,1.2-3.8l1-3.6h0Q210.4,1.8,209.5,1.8Z" fill="#0373af"/><path d="M207,11.3h-.2a.5.5,0,0,0-.2-.4c0-.1-.1-.2-.3-.2H206l-2.1,1.5.3-2.3a20,20,0,0,0,.4-2.4c0-.2,0-.3-.1-.3H204l-.7.2a.9.9,0,0,0-.3.6l-.7,2.2-.7,1.3c-.2.2-.4.4-.6.4s-.3-.2-.3-.6.1-.5.1-.8a6,6,0,0,1,.2-1.2l.3-.9a2.2,2.2,0,0,0,.1-.8.4.4,0,0,0-.1-.3h-.5l-.8.2-.4.6a12.9,12.9,0,0,0-.4,1.9c-.1.4-.1.9-.2,1.4a2.3,2.3,0,0,1-.7.7,2.1,2.1,0,0,1-1.1.4,1.1,1.1,0,0,1-1.1-.6,3.8,3.8,0,0,1-.4-2.1,4.1,4.1,0,0,1,.1-1.1h1.7c1.1,0,1.6-.4,1.6-1s0-.3-.1-.4h-1.9a5.3,5.3,0,0,0,1.8-3.9,2.8,2.8,0,0,0-.3-1.3,1.1,1.1,0,0,0-.9-.5,2.1,2.1,0,0,0-1.6.8,8.2,8.2,0,0,0-1.2,2,13.7,13.7,0,0,0-.7,2.9h-.8c-.5,0-.7.3-.7.8a.8.8,0,0,0,.2.5l.6.2h.5v2.1l-.2.2-1.1,1.1a.7.7,0,0,1-.6.4l-.4-.2a1.7,1.7,0,0,1-.1-.7,7.6,7.6,0,0,1,.3-2.1l.3-1.7c0-.3-.2-.5-.7-.5l-.7.2a.7.7,0,0,0-.3.6A13.3,13.3,0,0,0,190,10h0a.7.7,0,0,1-.6.2c-.2,0-.4-.1-.4-.5l.2-.7c0-.4.1-.7.1-.9a.8.8,0,0,0-.7-.9h-.2a2,2,0,0,0-1.1.3,2.9,2.9,0,0,0-1.1,1.1,7.8,7.8,0,0,0-1.1,2c0-.4.1-.7.1-1l.3-1c.1-.6.2-.9.2-1.1V7.3h-.4l-.9.2a2.1,2.1,0,0,0-.4.6l-.3,1.6-1.2.2a3.3,3.3,0,0,0-.8-1.9,2.2,2.2,0,0,0-1.7-.7,2.4,2.4,0,0,0-1.6.5A3.7,3.7,0,0,0,177.1,9a4.1,4.1,0,0,0-.4,1.9,1.3,1.3,0,0,0,.1.6l-.5.5c-.3.3-.5.4-.7.4l-.4-.2c0-.2-.1-.4-.1-.7a7.8,7.8,0,0,1,.4-2.1c.1-.9.2-1.5.2-1.7s-.2-.5-.7-.5l-.7.2L174,8c-.2.6-.3,1.2-.5,1.9h0a.7.7,0,0,1-.6.2c-.2,0-.3-.1-.3-.5a1.7,1.7,0,0,1,.1-.7,2.8,2.8,0,0,0,.1-.9.8.8,0,0,0-.7-.9h-.2l-1.1.3-1.1,1.1a7.8,7.8,0,0,0-1.1,2,3.4,3.4,0,0,0,.1-1l.3-1c.1-.6.2-.9.2-1.1s0-.2-.1-.2h-.4l-.8.2a.7.7,0,0,0-.4.6,10.3,10.3,0,0,0-.6,3.5,12.3,12.3,0,0,0,.2,1.9c.2.4.4.6.8.6a.7.7,0,0,0,.6-.3c.2-.1.3-.5.4-.9l.6-1.7a4.7,4.7,0,0,1,.7-1.2l.5-.5a.2.2,0,0,1,.2.2V10a.6.6,0,0,0-.1.4,1.5,1.5,0,0,0,.4,1.1,1.7,1.7,0,0,0,1.2.4,1.7,1.7,0,0,0,1-.3,3.3,3.3,0,0,0,.4,1.7,1.5,1.5,0,0,0,1.4.7,3,3,0,0,0,2.1-1.2c.1.3.4.5.6.7a2.7,2.7,0,0,0,1.5.5,2.5,2.5,0,0,0,1.8-.8,3.1,3.1,0,0,0,1.1-1.9h1.1v.3a12.3,12.3,0,0,0,.2,1.9c.2.4.4.6.8.6a.7.7,0,0,0,.6-.3c.2-.1.3-.5.4-.9a4.9,4.9,0,0,1,.6-1.7,4.7,4.7,0,0,1,.7-1.2l.5-.5a.2.2,0,0,1,.2.2V10a.6.6,0,0,0-.1.4,1.5,1.5,0,0,0,.4,1.1,1.7,1.7,0,0,0,1.2.4l1-.3a3.3,3.3,0,0,0,.4,1.7,1.7,1.7,0,0,0,1.3.7c.9,0,1.7-.6,2.7-1.8h0a2.7,2.7,0,0,0,2.6,1.8,3.4,3.4,0,0,0,1.7-.5l.6-.6.2.5a1.3,1.3,0,0,0,1.1.6,1.4,1.4,0,0,0,1.1-.6,3.5,3.5,0,0,0,.8-1.6l-.3,1.6v.3l-2.4,2.1a9.1,9.1,0,0,0-1.1,1.6,3.1,3.1,0,0,0-.3,1.3,1.7,1.7,0,0,0,.4,1.2,1.7,1.7,0,0,0,1.2.5,2.7,2.7,0,0,0,2.3-1.7,25.4,25.4,0,0,0,1.4-4.7l2.1-1.4h0a1.4,1.4,0,0,0,.3.9,1.4,1.4,0,0,0,2,0,2,2,0,0,0,.3-1.1,1.4,1.4,0,0,0-.3-.9A1.2,1.2,0,0,0,207,11.3ZM196.3,4.8a8.8,8.8,0,0,1,.5-1.5c.2-.4.3-.6.5-.6s.3.3.3.9a4.2,4.2,0,0,1-.4,1.6,3.7,3.7,0,0,1-1.3,1.7A15.5,15.5,0,0,1,196.3,4.8Zm-16,7.3a1.1,1.1,0,0,1-.8.3.8.8,0,0,1-.7-.4,2.7,2.7,0,0,1-.3-1.2,2,2,0,0,1,.4-1.5,1,1,0,0,1,.9-.6h.1v.5a1.8,1.8,0,0,0,.2,1,1.8,1.8,0,0,0,.7.8A3.7,3.7,0,0,1,180.3,12.1Zm20.6,6.1c-.3.5-.6.8-.8.8s-.3-.1-.3-.2-.1-.2-.1-.4a2.1,2.1,0,0,1,.5-1.3,6.5,6.5,0,0,1,1.6-1.7,13.1,13.1,0,0,1-.9,2.8Z" fill="#0373af"/></svg>